# Blender v3.0.1 OBJ File: ''
# www.blender.org
mtllib HENO.mtl
o Cube.006
v -0.792547 0.902471 0.469029
v -0.786106 1.523335 0.468116
v -0.936738 0.902334 -0.641436
v -0.930296 1.523198 -0.642349
v -1.436668 0.909277 0.552666
v -1.430227 1.530141 0.551753
v -1.580859 0.909140 -0.557800
v -1.574418 1.530004 -0.558713
v -0.465093 0.325845 -1.208726
v -0.465093 -0.295053 -1.208726
v -0.465093 0.325845 -0.088938
v -0.465093 -0.295053 -0.088938
v -1.114657 0.325845 -1.208726
v -1.114657 -0.295053 -1.208726
v -1.114657 0.325845 -0.088938
v -1.114657 -0.295053 -0.088938
v -1.816095 0.325845 -0.138770
v -1.816095 -0.295053 -0.138770
v -1.829188 0.325845 -1.258481
v -1.829188 -0.295053 -1.258481
v -1.166576 0.325845 -0.146365
v -1.166576 -0.295053 -0.146365
v -1.179668 0.325845 -1.266076
v -1.179668 -0.295053 -1.266076
v -1.836019 0.325845 1.141229
v -1.836019 -0.295053 1.141229
v -1.849112 0.325845 0.021517
v -1.849112 -0.295053 0.021517
v -1.186499 0.325845 1.133634
v -1.186499 -0.295053 1.133634
v -1.199592 0.325845 0.013923
v -1.199592 -0.295053 0.013923
v -0.491092 0.325845 -0.008112
v -0.491092 -0.295053 -0.008112
v -0.470050 0.325845 1.111478
v -0.470050 -0.295053 1.111478
v -1.140541 0.325845 0.004094
v -1.140541 -0.295053 0.004094
v -1.119500 0.325845 1.123684
v -1.119500 -0.295053 1.123684
v -0.868539 0.291339 -0.109840
v -0.862034 0.912203 -0.109840
v -0.855446 0.291202 -1.229551
v -0.848941 0.912066 -1.229551
v -1.518023 0.298144 -0.117435
v -1.511518 0.919008 -0.117435
v -1.504931 0.298007 -1.237146
v -1.498425 0.918871 -1.237146
v -0.868539 0.291339 1.122130
v -0.862034 0.912203 1.122130
v -0.855446 0.291202 0.002418
v -0.848941 0.912066 0.002418
v -1.518023 0.298144 1.114534
v -1.511518 0.919008 1.114534
v -1.504931 0.298007 -0.005177
v -1.498425 0.918871 -0.005177
v -0.792547 -0.285033 -1.218074
v -0.786105 0.335831 -1.218987
v -0.936738 -0.285170 -2.328540
v -0.930296 0.335694 -2.329453
v -1.436668 -0.278227 -1.134438
v -1.430227 0.342637 -1.135351
v -1.580859 -0.278364 -2.244903
v -1.574417 0.342500 -2.245816
v -0.792547 -0.285033 2.162480
v -0.786105 0.335831 2.161567
v -0.936738 -0.285170 1.052015
v -0.930296 0.335694 1.051102
v -1.436668 -0.278227 2.246116
v -1.430227 0.342637 2.245203
v -1.580859 -0.278364 1.135651
v -1.574417 0.342500 1.134738
vt 0.754393 0.495204
vt 0.996406 0.327338
vt 1.002795 0.750000
vt 0.775160 0.843525
vt 0.229633 0.721223
vt 0.625000 1.000000
vt 0.012380 1.000000
vt 0.082668 0.000000
vt 0.625000 0.000000
vt 0.763978 0.161271
vt 0.197684 0.115707
vt 0.003594 0.008393
vt 0.248802 0.382494
vt 0.008387 0.992206
vt 0.754393 0.495204
vt 0.996406 0.327338
vt 1.002795 0.750000
vt 0.775160 0.843525
vt 0.229633 0.721223
vt 0.625000 1.000000
vt 0.012380 1.000000
vt 0.082668 0.000000
vt 0.625000 0.000000
vt 0.763978 0.161271
vt 0.197684 0.115707
vt 0.003594 0.008393
vt 0.248802 0.382494
vt 0.008387 0.992206
vt 0.754393 0.495204
vt 0.996406 0.327338
vt 1.002795 0.750000
vt 0.775160 0.843525
vt 0.229633 0.721223
vt 0.625000 1.000000
vt 0.012380 1.000000
vt 0.082668 0.000000
vt 0.625000 0.000000
vt 0.763978 0.161271
vt 0.197684 0.115707
vt 0.003594 0.008393
vt 0.248802 0.382494
vt 0.008387 0.992206
vt 0.754393 0.495204
vt 0.996406 0.327338
vt 1.002795 0.750000
vt 0.775160 0.843525
vt 0.229633 0.721223
vt 0.625000 1.000000
vt 0.012380 1.000000
vt 0.082668 0.000000
vt 0.625000 0.000000
vt 0.763978 0.161271
vt 0.197684 0.115707
vt 0.003594 0.008393
vt 0.248802 0.382494
vt 0.008387 0.992206
vt 0.754393 0.495204
vt 0.996406 0.327338
vt 1.002795 0.750000
vt 0.775160 0.843525
vt 0.229633 0.721223
vt 0.625000 1.000000
vt 0.012380 1.000000
vt 0.082668 0.000000
vt 0.625000 0.000000
vt 0.763978 0.161271
vt 0.197684 0.115707
vt 0.003594 0.008393
vt 0.248802 0.382494
vt 0.008387 0.992206
vt 0.754393 0.495204
vt 0.996406 0.327338
vt 1.002795 0.750000
vt 0.775160 0.843525
vt 0.229633 0.721223
vt 0.625000 1.000000
vt 0.012380 1.000000
vt 0.082668 0.000000
vt 0.625000 0.000000
vt 0.763978 0.161271
vt 0.197684 0.115707
vt 0.003594 0.008393
vt 0.248802 0.382494
vt 0.008387 0.992206
vt 0.754393 0.495204
vt 0.996406 0.327338
vt 1.002795 0.750000
vt 0.775160 0.843525
vt 0.229633 0.721223
vt 0.625000 1.000000
vt 0.012380 1.000000
vt 0.082668 0.000000
vt 0.625000 0.000000
vt 0.763978 0.161271
vt 0.197684 0.115707
vt 0.003594 0.008393
vt 0.248802 0.382494
vt 0.008387 0.992206
vt 0.754393 0.495204
vt 0.996406 0.327338
vt 1.002795 0.750000
vt 0.775160 0.843525
vt 0.229633 0.721223
vt 0.625000 1.000000
vt 0.012380 1.000000
vt 0.082668 0.000000
vt 0.625000 0.000000
vt 0.763978 0.161271
vt 0.197684 0.115707
vt 0.003594 0.008393
vt 0.248802 0.382494
vt 0.008387 0.992206
vt 0.754393 0.495204
vt 0.996406 0.327338
vt 1.002795 0.750000
vt 0.775160 0.843525
vt 0.229633 0.721223
vt 0.625000 1.000000
vt 0.012380 1.000000
vt 0.082668 0.000000
vt 0.625000 0.000000
vt 0.763978 0.161271
vt 0.197684 0.115707
vt 0.003594 0.008393
vt 0.248802 0.382494
vt 0.008387 0.992206
vn -0.0104 -0.9999 0.0015
vn -0.1288 -0.0001 -0.9917
vn -0.9916 0.0105 0.1288
vn 0.0104 0.9999 -0.0015
vn 0.9916 -0.0105 -0.1288
vn 0.1288 0.0001 0.9917
vn -0.0000 1.0000 0.0000
vn 0.0000 0.0000 1.0000
vn -1.0000 0.0000 0.0000
vn -0.0000 -1.0000 -0.0000
vn 1.0000 0.0000 -0.0000
vn -0.0000 -0.0000 -1.0000
vn -0.0117 -0.0000 -0.9999
vn 0.9999 -0.0000 -0.0117
vn -0.9999 0.0000 0.0117
vn 0.0117 0.0000 0.9999
vn 0.0188 -0.0000 0.9998
vn -0.9998 0.0000 0.0188
vn 0.9998 0.0000 -0.0188
vn -0.0188 -0.0000 -0.9998
vn -0.0105 -0.9999 0.0000
vn 0.0117 -0.0001 -0.9999
vn -0.9999 0.0105 -0.0117
vn 0.0105 0.9999 -0.0000
vn 0.9999 -0.0105 0.0117
vn -0.0117 0.0001 0.9999
g Cube.006_Cube.006_Material.007
usemtl Material.007
s off
f 1/1/1 5/2/1 7/3/1 3/4/1
f 4/5/2 3/4/2 7/6/2 8/7/2
f 8/8/3 7/9/3 5/10/3 6/11/3
f 6/12/4 2/13/4 4/5/4 8/14/4
f 2/13/5 1/1/5 3/4/5 4/5/5
f 6/11/6 5/10/6 1/1/6 2/13/6
g Cube.006_Cube.006_Material.001
usemtl Material.001
f 9/15/7 13/16/7 15/17/7 11/18/7
f 12/19/8 11/18/8 15/20/8 16/21/8
f 16/22/9 15/23/9 13/24/9 14/25/9
f 14/26/10 10/27/10 12/19/10 16/28/10
f 10/27/11 9/15/11 11/18/11 12/19/11
f 14/25/12 13/24/12 9/15/12 10/27/12
g Cube.006_Cube.006_Material.002
usemtl Material.002
f 17/29/7 21/30/7 23/31/7 19/32/7
f 20/33/13 19/32/13 23/34/13 24/35/13
f 24/36/14 23/37/14 21/38/14 22/39/14
f 22/40/10 18/41/10 20/33/10 24/42/10
f 18/41/15 17/29/15 19/32/15 20/33/15
f 22/39/16 21/38/16 17/29/16 18/41/16
g Cube.006_Cube.006_Material.003
usemtl Material.003
f 25/43/7 29/44/7 31/45/7 27/46/7
f 28/47/13 27/46/13 31/48/13 32/49/13
f 32/50/14 31/51/14 29/52/14 30/53/14
f 30/54/10 26/55/10 28/47/10 32/56/10
f 26/55/15 25/43/15 27/46/15 28/47/15
f 30/53/16 29/52/16 25/43/16 26/55/16
g Cube.006_Cube.006_Material.004
usemtl Material.004
f 33/57/7 37/58/7 39/59/7 35/60/7
f 36/61/17 35/60/17 39/62/17 40/63/17
f 40/64/18 39/65/18 37/66/18 38/67/18
f 38/68/10 34/69/10 36/61/10 40/70/10
f 34/69/19 33/57/19 35/60/19 36/61/19
f 38/67/20 37/66/20 33/57/20 34/69/20
g Cube.006_Cube.006_Material.005
usemtl Material.005
f 41/71/21 45/72/21 47/73/21 43/74/21
f 44/75/22 43/74/22 47/76/22 48/77/22
f 48/78/23 47/79/23 45/80/23 46/81/23
f 46/82/24 42/83/24 44/75/24 48/84/24
f 42/83/25 41/71/25 43/74/25 44/75/25
f 46/81/26 45/80/26 41/71/26 42/83/26
g Cube.006_Cube.006_Material.006
usemtl Material.006
f 49/85/21 53/86/21 55/87/21 51/88/21
f 52/89/22 51/88/22 55/90/22 56/91/22
f 56/92/23 55/93/23 53/94/23 54/95/23
f 54/96/24 50/97/24 52/89/24 56/98/24
f 50/97/25 49/85/25 51/88/25 52/89/25
f 54/95/26 53/94/26 49/85/26 50/97/26
g Cube.006_Cube.006_Material.008
usemtl Material.008
f 57/99/1 61/100/1 63/101/1 59/102/1
f 60/103/2 59/102/2 63/104/2 64/105/2
f 64/106/3 63/107/3 61/108/3 62/109/3
f 62/110/4 58/111/4 60/103/4 64/112/4
f 58/111/5 57/99/5 59/102/5 60/103/5
f 62/109/6 61/108/6 57/99/6 58/111/6
g Cube.006_Cube.006_Material.009
usemtl Material.009
f 65/113/1 69/114/1 71/115/1 67/116/1
f 68/117/2 67/116/2 71/118/2 72/119/2
f 72/120/3 71/121/3 69/122/3 70/123/3
f 70/124/4 66/125/4 68/117/4 72/126/4
f 66/125/5 65/113/5 67/116/5 68/117/5
f 70/123/6 69/122/6 65/113/6 66/125/6
